<?xml version="1.0" encoding="UTF-8"?>
<svg id="Calque_1" data-name="Calque 1" xmlns="http://www.w3.org/2000/svg" viewBox="0 0 186.94 198.06">
  <defs>
    <style>
      .cls-1 {
        fill: #fff;
      }

      .cls-2 {
        fill: #e30613;
      }

      .cls-3 {
        fill: #393737;
      }
    </style>
  </defs>
  <g>
    <path class="cls-1" d="m.01,147.68c0-1.09.55-1.63,1.66-1.63h19.9c1.61,0,3.05.14,4.34.41,1.29.27,2.38.65,3.28,1.15s1.59,1.1,2.07,1.81c.48.71.73,1.5.73,2.37v4.46c0,.87-.24,1.66-.73,2.37-.48.71-1.17,1.31-2.07,1.81s-1.99.88-3.28,1.15c-1.29.27-2.73.41-4.34.41h-4.13c-.77,0-1.45,0-2.04-.02-.59,0-1.12-.03-1.59-.05s-.93-.05-1.38-.07v.07c.38.14.78.29,1.22.44.44.15.97.35,1.61.58.64.24,1.41.53,2.32.89.91.35,2.04.8,3.38,1.35l8.54,3.43c.76.31,1.13.84,1.13,1.59,0,.64-.21,1.07-.62,1.31-.41.24-1.01.35-1.79.35-.17,0-.37,0-.62-.02-.25,0-.5-.03-.76-.07-.26-.04-.51-.08-.76-.14s-.47-.15-.65-.27l-20.72-8.96v7.79c0,.69-.2,1.13-.6,1.35-.4.21-.99.32-1.77.32s-1.33-.11-1.74-.32c-.4-.21-.6-.66-.6-1.35v-22.51h.01Zm4.71,2.2v8.36h16.43c1.2,0,2.2-.06,2.99-.18s1.42-.28,1.89-.48.8-.44.99-.71c.19-.27.28-.57.28-.9v-3.82c0-.31-.09-.6-.28-.89-.19-.28-.52-.53-.99-.73s-1.1-.36-1.89-.48-1.79-.18-2.99-.18H4.72Z"/>
    <path class="cls-1" d="m34.15,157.88c0-4.11,3.34-6.16,10.02-6.16h7.72c6.68,0,10.02,2.05,10.02,6.16v7.68c0,4.11-3.34,6.16-10.02,6.16h-7.72c-6.68,0-10.02-2.05-10.02-6.16v-7.68Zm23.27,0c0-.73-.45-1.35-1.35-1.84-.9-.5-2.34-.74-4.32-.74h-7.44c-1.98,0-3.42.25-4.32.74-.9.5-1.35,1.11-1.35,1.84v7.68c0,.71.45,1.32,1.35,1.82.9.51,2.34.76,4.32.76h7.44c1.98,0,3.42-.25,4.32-.76s1.35-1.12,1.35-1.82v-7.68Z"/>
    <path class="cls-1" d="m64.61,157.88c0-4.11,3.34-6.16,10.02-6.16h7.72c6.68,0,10.02,2.05,10.02,6.16v7.68c0,4.11-3.34,6.16-10.02,6.16h-7.72c-6.68,0-10.02-2.05-10.02-6.16v-7.68Zm23.27,0c0-.73-.45-1.35-1.35-1.84-.9-.5-2.34-.74-4.32-.74h-7.44c-1.98,0-3.42.25-4.32.74s-1.35,1.11-1.35,1.84v7.68c0,.71.45,1.32,1.35,1.82.9.51,2.34.76,4.32.76h7.44c1.98,0,3.42-.25,4.32-.76.9-.51,1.35-1.12,1.35-1.82v-7.68Z"/>
    <path class="cls-1" d="m96.84,151.72v-4.14c0-.68.18-1.13.55-1.35.37-.21.93-.32,1.68-.32s1.32.11,1.7.32c.38.21.57.66.57,1.35v4.14h7.47c.54,0,.89.15,1.04.46.15.31.23.76.23,1.35s-.08,1.03-.23,1.33-.5.44-1.04.44h-7.47v14.91c0,.69-.19,1.13-.57,1.35-.38.21-.94.32-1.7.32s-1.32-.11-1.68-.32-.55-.66-.55-1.35v-14.91h-2.02c-.54,0-.89-.15-1.04-.44-.15-.3-.23-.74-.23-1.33s.08-1.04.23-1.35c.15-.31.5-.46,1.04-.46h2.02Z"/>
    <path class="cls-1" d="m150.28,147.36c.38-.45.8-.77,1.26-.96.46-.19.97-.28,1.54-.28,1.75,0,2.62.8,2.62,2.41v21.67c0,.69-.2,1.13-.6,1.35-.4.21-.99.32-1.77.32s-1.37-.11-1.77-.32c-.4-.21-.6-.66-.6-1.35v-16.79l-14.13,17.11c-.4.47-.82.82-1.24,1.03-.42.21-.94.32-1.56.32-.68,0-1.26-.11-1.72-.32s-.88-.55-1.26-1.03l-14.17-17.11v16.79c0,.69-.2,1.13-.6,1.35-.4.21-.99.32-1.77.32s-1.33-.11-1.74-.32c-.4-.21-.6-.66-.6-1.35v-21.67c0-1.61.86-2.41,2.59-2.41,1.16,0,2.09.41,2.8,1.24l16.29,19.66,16.43-19.66Z"/>
    <path class="cls-1" d="m163.21,163.76v1.81c0,.71.45,1.32,1.35,1.82.9.51,2.34.76,4.32.76h4.07c.54,0,.89.15,1.05.44.15.3.23.74.23,1.33s-.08,1.04-.23,1.35c-.15.31-.5.46-1.05.46h-4.21c-6.68,0-10.02-2.05-10.02-6.16v-7.68c0-4.11,3.34-6.16,10.02-6.16h8.18c3.54,0,6.1.51,7.67,1.52,1.57,1.02,2.35,2.56,2.35,4.64v4.07c0,.69-.13,1.16-.39,1.42s-.84.39-1.74.39h-21.6Zm0-3.51h19.23v-2.37c0-.83-.44-1.46-1.33-1.91-.88-.45-2.33-.67-4.34-.67h-7.9c-1.98,0-3.42.25-4.32.74-.9.5-1.35,1.11-1.35,1.84v2.37h.01Z"/>
  </g>
  <g>
    <path class="cls-2" d="m69.09,90.03s-.07,8.17,6.29,9.3,10.78-4.65,10.78-4.65l-17.07-5.38v.73Z"/>
    <path class="cls-1" d="m67.75,121.36h-5.1v-1.13l-16.46-11.68c-.67-.48-1.07-1.25-1.07-2.08v-21.67h5.1v20.35l16.46,11.68c.67.48,1.07,1.25,1.07,2.08v2.45Z"/>
    <path class="cls-1" d="m97.61,135.78h-25.18c-5.39,0-9.78-4.36-9.78-9.71v-7.16h5.1v7.16c0,2.54,2.1,4.61,4.68,4.61h25.18v5.1Z"/>
    <path class="cls-1" d="m78.01,135.78c-1.41,0-2.55-1.14-2.55-2.55v-6.79c0-1.41,1.14-2.55,2.55-2.55s2.55,1.14,2.55,2.55v6.79c0,1.41-1.14,2.55-2.55,2.55Z"/>
    <path class="cls-3" d="m92.33,135.78c-1.41,0-2.55-1.14-2.55-2.55v-9.33c0-1.41,1.14-2.55,2.55-2.55s2.55,1.14,2.55,2.55v9.33c0,1.41-1.14,2.55-2.55,2.55Z"/>
    <path class="cls-1" d="m47.67,86.49c-3.33,0-6.03-2.71-6.03-6.03s2.71-6.03,6.03-6.03,6.03,2.71,6.03,6.03-2.71,6.03-6.03,6.03Zm0-8.66c-1.45,0-2.63,1.18-2.63,2.63s1.18,2.63,2.63,2.63,2.63-1.18,2.63-2.63-1.18-2.63-2.63-2.63Z"/>
    <circle class="cls-2" cx="54.29" cy="61.29" r="4.81"/>
    <circle class="cls-2" cx="72.01" cy="45.83" r="4.81"/>
    <circle class="cls-2" cx="62.38" cy="31.23" r="4.81"/>
    <circle class="cls-2" cx="86.06" cy="36.04" r="4.81"/>
    <circle class="cls-2" cx="86.46" cy="21.06" r="4.81"/>
    <circle class="cls-2" cx="109.78" cy="26.41" r="4.81"/>
    <rect class="cls-2" x="42.87" y="44.13" width="29.14" height="3.4"/>
    <path class="cls-2" d="m74.15,32.93h-11.77v-3.4h10.07v-4.28c0-.73.46-1.38,1.15-1.61l12.31-4.19,1.1,3.22-11.16,3.8v4.76c0,.94-.76,1.7-1.7,1.7Z"/>
    <rect class="cls-2" x="88.77" y="35.09" width="3.4" height="21.45" transform="translate(-10.84 41.26) rotate(-24.28)"/>
    <path class="cls-2" d="m81.11,65.4l-17.56-5.93-8.63,3.4-1.25-3.16,9.21-3.63c.37-.15.79-.16,1.17-.03l18.15,6.13-1.09,3.22Z"/>
    <path class="cls-2" d="m111.48,41.83h-3.4v-12.78l-8.17,3.72c-.53.24-1.14.2-1.62-.12-.49-.31-.78-.85-.78-1.43V10.36h3.4v18.23l8.17-3.72c.52-.24,1.14-.2,1.62.12.49.31.78.85.78,1.43v15.42Z"/>
    <path class="cls-1" d="m85.29,12.06c-3.32,0-6.03-2.71-6.03-6.03s2.71-6.03,6.03-6.03,6.03,2.71,6.03,6.03-2.71,6.03-6.03,6.03Zm0-8.66c-1.45,0-2.63,1.18-2.63,2.63s1.18,2.63,2.63,2.63,2.63-1.18,2.63-2.63-1.18-2.63-2.63-2.63Z"/>
    <path class="cls-1" d="m99.21,12.06c-3.33,0-6.03-2.71-6.03-6.03s2.71-6.03,6.03-6.03,6.03,2.71,6.03,6.03-2.71,6.03-6.03,6.03Zm0-8.66c-1.45,0-2.63,1.18-2.63,2.63s1.18,2.63,2.63,2.63,2.63-1.18,2.63-2.63-1.18-2.63-2.63-2.63Z"/>
    <path class="cls-1" d="m43.27,77.49c-7.77-21.71-2.84-37.7,2.67-47.29,8.59-14.97,23.59-23.76,34.64-25.83l.94,5.01c-9.58,1.79-23.41,9.86-31.15,23.35-7.13,12.42-7.92,27.3-2.29,43.03l-4.8,1.72Z"/>
    <path class="cls-1" d="m106.49,135.78c-1.41,0-2.55-1.14-2.55-2.55v-6.79c0-1.41,1.14-2.55,2.55-2.55s2.55,1.14,2.55,2.55v6.79c0,1.41-1.14,2.55-2.55,2.55Z"/>
    <path class="cls-1" d="m92.17,135.78c-1.41,0-2.55-1.14-2.55-2.55v-9.33c0-1.41,1.14-2.55,2.55-2.55s2.55,1.14,2.55,2.55v9.33c0,1.41-1.14,2.55-2.55,2.55Z"/>
    <path class="cls-1" d="m136.83,86.49c-3.33,0-6.03-2.71-6.03-6.03s2.71-6.03,6.03-6.03,6.03,2.71,6.03,6.03-2.71,6.03-6.03,6.03Zm0-8.66c-1.45,0-2.63,1.18-2.63,2.63s1.18,2.63,2.63,2.63,2.63-1.18,2.63-2.63-1.18-2.63-2.63-2.63Z"/>
    <path class="cls-1" d="m141.23,77.49l-4.8-1.72c5.63-15.73,4.84-30.61-2.29-43.03-7.74-13.49-21.57-21.56-31.15-23.35l.94-5.01c11.05,2.07,26.04,10.86,34.64,25.83,5.5,9.59,10.44,25.58,2.67,47.29Z"/>
    <path class="cls-1" d="m52.15,80.57l-1.63-4.83c.68-.23,67.55-23.2,67.9-60.69l5.1.05c-.39,41.1-68.48,64.5-71.38,65.47Z"/>
    <path class="cls-1" d="m93.02,96.62l-1.69-4.43c46.74-16.35,48.74-39.66,48.76-39.89l5.09.32c-.08,1.09-2.27,26.54-52.16,44Z"/>
    <path class="cls-1" d="m62.09,83.95s17.83,7.3,29.23,8.24l-.55,4.51s-18.03-.78-28.68-12.75Z"/>
    <path class="cls-1" d="m90.06,94.35c-1.4,5.35-6.27,9.3-12.04,9.3-6.86,0-12.45-5.58-12.45-12.45,0-1.56.29-3.05.82-4.43l4.67,2.08c-.25.74-.39,1.53-.39,2.36,0,4.05,3.29,7.35,7.35,7.35,3.24,0,5.99-2.1,6.97-5.02l5.07.81Z"/>
    <path class="cls-1" d="m121.6,79.37c1.95-1.58,3.55-5.91,3.55-3.4v14.9c0,2.52-1.77,5.63-3.93,6.92l-11.52,6.89c-2.16,1.29-5.41.92-7.23-.82l-10.29-10.83c-1.82-1.74,1.93.26,4.28-.63l12.44-6.41c2.35-.89,5.48-2.58,7.44-4.17l5.26-2.45Z"/>
    <g>
      <path class="cls-3" d="m93.07,114.75l-.91-1.03-.91,1.03c.24-.21.56-.35.91-.35s.67.14.91.35Z"/>
      <path class="cls-1" d="m97.52,113.38l-3.75-4.28c-.81-.92-2.39-.92-3.2,0l-3.75,4.28c-.77.88-.69,2.23.2,3,.88.77,2.23.69,3-.2l1-1.14c.07-.11.16-.2.25-.29l.91-1.03.91,1.03c.1.08.18.18.25.29l1,1.14c.42.48,1.01.72,1.6.72.5,0,1-.17,1.4-.53.86-.77.95-2.11.18-2.99Z"/>
      <path class="cls-3" d="m93.07,114.75l.25.29c-.07-.11-.15-.2-.25-.29Z"/>
      <path class="cls-3" d="m91.01,115.04l.25-.29c-.1.09-.18.18-.25.29Z"/>
    </g>
    <path class="cls-1" d="m85.55,91.32s5.66,1.09,10.45-.85c4.78-1.93,2.05,4.68,2.05,4.68,0,0-3.57,2.46-9.67,1.23-6.1-1.22-2.83-5.06-2.83-5.06Z"/>
    <path class="cls-1" d="m121.85,121.36h-5.1v-2.45c0-.83.4-1.6,1.07-2.08l16.46-11.68v-20.35h5.1v21.67c0,.83-.4,1.6-1.07,2.08l-16.46,11.68v1.13Z"/>
    <path class="cls-1" d="m112.07,135.78h-25.18v-5.1h25.18c2.58,0,4.68-2.07,4.68-4.61v-7.16h5.1v7.16c0,5.35-4.39,9.71-9.78,9.71Z"/>
  </g>
  <rect class="cls-1" x="66.89" y="180.04" width="54.13" height="17.11"/>
  <g>
    <path class="cls-2" d="m98.46,184.09c-.22-.1-.52-.17-.9-.23-.37-.06-.85-.08-1.42-.08h-7.78v3.96h7.78c.57,0,1.04-.03,1.42-.08.37-.06.67-.13.9-.23.22-.09.38-.21.47-.33s.13-.27.13-.43v-1.81c0-.15-.04-.29-.13-.42-.09-.14-.24-.25-.47-.35Z"/>
    <path class="cls-2" d="m81.21,184.09c-.22-.1-.52-.17-.9-.23-.37-.06-.85-.08-1.42-.08h-7.86v4.24h7.86c.57,0,1.04-.03,1.42-.08.37-.06.67-.13.9-.23.22-.1.38-.21.47-.34.09-.13.13-.27.13-.43v-2.1c0-.15-.04-.29-.13-.42-.09-.12-.25-.23-.47-.33Z"/>
    <path class="cls-2" d="m115.26,184.16c-.45-.25-1.16-.38-2.15-.38h-4.75c-.98,0-1.7.13-2.15.38s-.67.56-.67.93v5.92c0,.36.22.67.67.92.45.26,1.16.39,2.15.39h4.75c.98,0,1.7-.13,2.15-.39s.67-.56.67-.92v-5.92c0-.37-.22-.68-.67-.93Z"/>
    <path class="cls-2" d="m118.28,178.03h-49.61c-2.23,0-4.06,1.83-4.06,4.06v11.91c0,2.23,1.83,4.06,4.06,4.06h49.61c2.23,0,4.06-1.83,4.06-4.06v-11.91c0-2.24-1.83-4.06-4.06-4.06Zm-34.25,9.09c0,.41-.11.79-.34,1.12-.23.34-.56.62-.98.86-.43.23-.94.42-1.55.54-.61.13-1.29.19-2.05.19h-8.06v3.57c0,.32-.1.54-.29.64s-.47.15-.84.15-.63-.05-.82-.15c-.19-.1-.29-.31-.29-.64v-10.66c0-.51.26-.77.79-.77h9.51c.76,0,1.44.06,2.05.19s1.13.31,1.55.54.75.52.98.86c.23.33.34.71.34,1.12v2.44Zm17.25-.32c0,.41-.11.79-.34,1.12s-.56.62-.98.85c-.43.23-.94.42-1.55.55s-1.29.19-2.05.19h-1.95c-.36,0-.68,0-.96,0-.28,0-.53,0-.75-.03-.22,0-.44-.02-.65-.03v.03c.18.07.37.14.58.21s.46.17.76.28c.3.11.67.25,1.1.42s.96.38,1.6.64l4.04,1.63c.36.15.54.4.54.75,0,.3-.1.51-.29.62-.2.11-.48.17-.85.17-.08,0-.18,0-.29,0s-.24-.02-.36-.03-.24-.04-.36-.07-.22-.07-.31-.13l-9.81-4.24v3.69c0,.32-.1.54-.29.64s-.47.15-.84.15-.63-.05-.82-.15c-.19-.1-.29-.31-.29-.64v-10.66c0-.51.26-.77.79-.77h9.42c.76,0,1.44.06,2.05.19s1.13.31,1.55.54.75.52.98.86c.23.33.34.71.34,1.12v2.12h-.01Zm16.87,4.21c0,2.08-1.65,3.12-4.96,3.12h-4.88c-3.31,0-4.96-1.04-4.96-3.12v-5.92c0-2.08,1.65-3.12,4.96-3.12h4.88c3.31,0,4.96,1.04,4.96,3.12v5.92Z"/>
  </g>
</svg>